<svg width="70" height="70" viewBox="0 0 70 70" fill="none" xmlns="http://www.w3.org/2000/svg">
<rect width="70" height="70" fill="#FAFF03"/>
<path d="M21.18 36.432C27.336 36.432 30.576 32.796 30.576 26.784V11.952H24.888V26.784C24.888 30.636 23.556 31.932 21.18 31.932C18.912 31.932 17.796 29.844 17.4 27.792L12.18 29.7C13.188 33.768 16.14 36.432 21.18 36.432Z" fill="#121212"/>
<path d="M12.584 60H31.088V54.996H18.272V50.136H26.084V45.132H18.272V40.956H31.088V35.952H12.584V60Z" fill="#121212"/>
<path d="M38.272 60V50.136H48.172V60H53.86V35.952H48.172V45.132H38.272V35.952H32.584V60H38.272Z" fill="#121212"/>
<path d="M30.26 23.976C30.26 31.464 35.336 36.432 42.716 36.432C50.096 36.432 55.244 31.464 55.244 23.976C55.244 16.488 50.096 11.52 42.716 11.52C35.336 11.52 30.26 16.488 30.26 23.976ZM36.272 23.976C36.272 18.864 39.224 16.2 42.716 16.2C46.244 16.2 49.196 18.864 49.196 23.976C49.196 29.088 46.244 31.752 42.716 31.752C39.224 31.752 36.272 29.088 36.272 23.976Z" fill="#121212"/>
</svg>
